<?xml version="1.0" standalone="no"?>
<!DOCTYPE svg PUBLIC "-//W3C//DTD SVG 20010904//EN"
 "http://www.w3.org/TR/2001/REC-SVG-20010904/DTD/svg10.dtd">
<svg version="1.0" xmlns="http://www.w3.org/2000/svg"
 width="714.000000pt" height="714.000000pt" viewBox="0 0 714.000000 714.000000"
 preserveAspectRatio="xMidYMid meet">

<g transform="translate(0.000000,714.000000) scale(0.100000,-0.100000)"
fill="#000000" stroke="none">
<path d="M3390 6759 c-607 -53 -1108 -224 -1585 -542 -66 -44 -122 -83 -125
-86 -3 -4 -21 -18 -40 -31 -19 -14 -44 -32 -55 -41 -184 -152 -361 -327 -485
-479 -25 -30 -49 -60 -55 -66 -77 -86 -241 -351 -334 -539 -544 -1101 -401
-2384 373 -3350 82 -102 331 -358 421 -432 240 -197 433 -323 675 -440 330
-160 689 -267 1060 -315 158 -20 661 -17 810 5 471 70 829 190 1217 408 403
226 807 602 1069 994 302 451 476 937 525 1468 15 160 6 561 -15 707 -49 340
-149 657 -302 962 -118 236 -264 459 -411 628 -12 14 -31 36 -43 50 -78 91
-288 293 -390 376 -308 250 -676 449 -1050 570 -401 130 -872 187 -1260 153z
m432 -249 c715 -48 1389 -342 1883 -820 190 -184 283 -293 417 -490 259 -383
416 -808 478 -1294 17 -133 14 -497 -5 -649 -25 -208 -75 -427 -137 -602 -98
-276 -254 -569 -419 -786 -402 -529 -947 -903 -1577 -1083 -255 -73 -463 -104
-742 -113 -435 -12 -813 54 -1220 214 -540 213 -1052 626 -1364 1099 -36 54
-69 104 -74 109 -4 6 -35 60 -69 122 -299 551 -408 1154 -322 1783 53 387 211
810 432 1152 433 671 1162 1164 1937 1307 309 57 503 69 782 51z"/>
<path d="M3455 6399 c-575 -33 -1152 -252 -1600 -608 -283 -225 -543 -527
-717 -836 -383 -680 -463 -1509 -215 -2240 177 -525 492 -976 922 -1320 186
-149 510 -337 730 -422 390 -152 822 -220 1225 -194 542 36 1002 192 1440 487
58 39 115 78 125 87 11 8 49 39 85 68 231 187 502 499 630 724 70 122 115 205
136 252 13 29 35 78 49 109 72 159 156 459 192 684 14 93 18 172 18 410 -1
313 -9 391 -66 635 -97 411 -302 818 -577 1145 -127 151 -343 359 -446 429
-12 8 -23 18 -26 21 -10 13 -247 167 -315 205 -494 274 -1027 396 -1590 364z
m1069 -1262 c17 -12 38 -27 46 -34 8 -7 65 -51 125 -99 61 -47 126 -99 145
-114 108 -86 521 -413 685 -541 105 -82 262 -205 350 -274 88 -69 167 -131
175 -138 8 -6 35 -28 60 -47 25 -19 47 -37 50 -40 3 -3 31 -25 63 -50 32 -25
68 -52 79 -61 23 -18 31 -9 -121 -128 -38 -29 -248 -195 -271 -214 -8 -7 -44
-35 -80 -62 -36 -27 -74 -57 -85 -66 -25 -22 -299 -236 -385 -303 -36 -27
-105 -82 -155 -121 -49 -39 -155 -122 -235 -185 -217 -171 -266 -209 -371
-293 l-97 -76 -516 -3 c-339 -2 -516 0 -515 7 0 6 39 39 86 75 47 36 90 70 97
75 6 6 31 26 56 45 25 19 52 40 60 47 18 15 123 97 176 138 40 31 144 113 254
200 36 28 94 74 130 101 35 27 73 57 84 67 11 9 35 27 53 40 18 12 33 26 33
30 0 4 -575 8 -1277 7 -703 -1 -1484 -1 -1735 -1 l-458 1 0 540 0 540 513 1
c281 0 961 1 1509 2 701 1 998 -1 998 -9 0 -6 -18 -20 -40 -33 -22 -12 -40
-26 -40 -30 0 -5 37 -11 83 -15 45 -3 108 -8 141 -12 83 -9 71 10 -34 52 -46
19 -87 37 -92 42 -4 4 104 6 240 4 136 -2 272 -2 302 0 l55 3 -90 70 c-49 39
-97 75 -105 82 -8 7 -76 60 -150 118 -74 59 -146 115 -159 125 -14 11 -58 45
-99 77 -67 52 -224 175 -262 206 -8 7 -56 43 -105 82 -50 38 -95 74 -102 80
-6 5 -39 30 -72 54 -57 40 -67 52 -57 62 2 2 235 3 516 1 511 -3 513 -3 544
-25z m-1481 -3016 c20 -20 22 -31 22 -151 0 -167 3 -164 -147 -168 -73 -3
-113 0 -117 7 -12 19 -13 285 -1 315 l10 29 106 -5 c91 -4 108 -8 127 -27z
m185 -148 l2 -173 -55 0 -55 0 0 169 c0 126 3 171 13 175 6 3 30 4 52 3 l40
-2 3 -172z m304 147 c25 -31 24 -94 -2 -118 l-20 -19 20 -18 c17 -15 20 -31
20 -92 l0 -73 -50 0 -50 0 -1 48 c-2 71 -12 106 -32 110 -15 3 -17 -6 -17 -78
l0 -81 -52 3 -53 3 -3 153 c-3 203 -8 196 121 190 89 -5 103 -8 119 -28z m256
17 c6 -5 12 -17 12 -28 0 -16 -7 -19 -41 -19 l-40 0 3 -37 c3 -33 7 -39 36
-47 17 -5 32 -15 32 -22 0 -8 0 -17 0 -21 1 -5 -14 -10 -32 -13 -30 -4 -33 -9
-36 -42 -3 -36 -2 -37 40 -45 37 -7 43 -12 46 -36 l3 -27 -100 0 -101 0 0 165
c0 157 1 166 20 173 27 10 142 9 158 -1z m160 1 c8 -8 12 -62 12 -175 l0 -163
-61 0 -61 0 6 163 c5 137 8 164 23 175 21 15 65 16 81 0z m300 -20 c3 -24 -1
-27 -30 -30 l-33 -3 -3 -143 -3 -143 -52 3 -52 3 -6 140 c-3 77 -7 141 -8 143
0 1 -14 2 -31 2 -23 0 -30 4 -30 20 0 32 29 40 140 37 l105 -2 3 -27z m212 10
c14 -33 69 -311 64 -320 -3 -5 -27 -8 -54 -8 -44 0 -49 2 -59 30 -7 20 -17 30
-31 30 -15 0 -22 -8 -26 -30 -6 -29 -8 -30 -62 -30 l-55 0 7 38 c4 20 13 78
21 127 8 50 17 104 20 122 9 51 28 63 101 63 57 0 66 -2 74 -22z m740 -503
c24 -15 40 -75 40 -152 0 -134 -17 -166 -98 -184 -64 -13 -123 1 -151 38 -18
22 -21 40 -21 129 0 114 8 147 42 165 46 26 150 28 188 4z m-2881 0 c35 -17
41 -32 41 -96 0 -60 -24 -89 -74 -89 -62 0 -66 -5 -66 -81 l0 -69 -55 0 -55 0
0 163 c0 113 4 167 12 175 18 18 162 16 197 -3z m276 -6 c9 -26 -2 -37 -40
-41 -26 -3 -30 -8 -33 -36 -3 -32 4 -40 45 -46 11 -2 19 -13 21 -29 3 -25 0
-27 -32 -27 -35 0 -36 -1 -36 -39 0 -40 11 -51 50 -51 21 0 45 -34 35 -50 -3
-6 -50 -10 -103 -10 l-97 0 -4 145 c-2 100 1 155 9 175 12 30 13 30 96 30 75
0 83 -2 89 -21z m285 -4 c28 -26 28 -110 0 -125 -19 -10 -19 -11 0 -30 16 -16
20 -34 20 -95 l0 -75 -50 0 -50 0 0 73 c0 67 -10 97 -32 97 -4 0 -8 -37 -10
-82 l-3 -83 -57 -3 -58 -3 0 160 c0 201 -4 195 127 189 71 -4 98 -10 113 -23z
m181 5 c5 -8 19 -37 30 -65 18 -43 22 -47 29 -30 5 11 9 36 9 56 1 43 20 62
58 57 l28 -3 3 -172 2 -173 -48 0 -49 0 -28 65 c-15 36 -31 62 -36 59 -5 -3
-9 -32 -9 -65 l0 -59 -45 0 -45 0 0 163 c0 117 4 167 12 175 17 17 79 11 89
-8z m417 -7 c10 -28 62 -286 62 -310 0 -9 -17 -13 -50 -13 -48 0 -50 2 -65 36
-18 44 -47 43 -55 -1 -5 -29 -7 -30 -63 -33 -33 -2 -57 1 -57 7 0 5 7 38 15
73 8 35 21 103 30 152 8 49 20 95 26 103 8 8 35 13 79 13 65 0 68 -1 78 -27z
m262 -40 c19 -74 27 -85 35 -47 4 16 12 47 19 69 l13 40 63 3 c44 2 66 -1 71
-10 5 -7 9 -86 9 -175 l0 -163 -49 0 c-48 0 -48 0 -55 38 -3 20 -6 66 -7 102
l-1 65 -13 -55 c-7 -30 -16 -76 -20 -102 -6 -46 -7 -48 -40 -48 -30 0 -34 4
-40 33 -3 17 -14 64 -23 102 l-17 70 -3 -102 -3 -103 -49 0 -50 0 0 163 c0
116 4 167 12 175 8 8 35 12 73 10 l60 -3 15 -62z m466 57 c38 -15 53 -38 54
-82 0 -28 -5 -40 -22 -49 l-22 -12 25 -19 c21 -18 24 -29 24 -84 0 -38 -5 -68
-13 -76 -9 -9 -52 -14 -132 -17 l-120 -3 0 170 c0 127 3 172 13 175 23 10 166
7 193 -3z m224 -140 c4 -128 7 -145 23 -148 15 -3 17 8 18 120 1 167 3 172 62
176 42 3 47 1 53 -22 3 -14 4 -82 3 -152 -4 -122 -5 -126 -31 -149 -52 -45
-173 -40 -215 10 -21 24 -23 36 -23 159 0 150 4 158 65 154 l40 -3 5 -145z
m444 139 c29 -14 49 -56 44 -95 -3 -27 -7 -29 -50 -32 -40 -3 -48 0 -59 20 -7
13 -12 24 -11 26 1 1 2 13 2 27 0 34 -36 35 -42 1 -8 -41 -10 -163 -3 -200 10
-50 41 -50 51 -1 7 40 28 55 73 55 24 0 32 -5 37 -25 17 -67 -44 -118 -141
-119 -108 -2 -135 36 -135 187 0 88 15 128 58 151 32 18 141 21 176 5z"/>
<path d="M2429 4156 c-28 -19 -54 -26 -127 -31 -58 -5 -96 -4 -104 3 -19 14
-162 13 -200 -2 -18 -7 -41 -16 -51 -19 -17 -6 -16 -9 5 -47 19 -33 21 -43 11
-60 -19 -29 -16 -40 11 -40 61 0 66 -16 38 -116 -16 -58 -22 -67 -110 -144
-73 -64 -98 -81 -116 -76 -24 6 -51 -10 -106 -62 -19 -18 -50 -38 -67 -44 -44
-16 -41 -23 10 -25 23 0 56 -4 73 -8 28 -6 32 -4 37 22 4 15 14 37 22 48 15
19 31 20 393 25 l376 5 6 30 c14 68 100 168 204 237 71 47 161 94 151 79 -3
-7 2 -11 14 -11 40 0 27 17 -62 83 -267 195 -235 177 -307 177 -53 0 -72 -5
-101 -24z"/>
<path d="M5301 4124 c-30 -13 -66 -23 -80 -22 -22 3 -26 -2 -34 -39 -8 -42 -9
-43 -75 -62 -146 -43 -232 -60 -342 -66 -138 -8 -150 -11 -150 -36 0 -18 -5
-20 -46 -17 l-47 3 -14 -50 c-8 -27 -16 -51 -18 -53 -5 -5 -239 -92 -249 -92
-5 0 -28 16 -51 35 -33 26 -44 43 -49 75 -6 39 -8 40 -44 40 -21 0 -46 6 -56
13 -15 11 -10 17 48 56 37 24 66 48 66 54 0 6 -10 21 -22 34 -19 21 -21 27 -9
44 7 12 11 22 9 24 -2 2 -37 8 -78 15 -166 25 -147 27 -245 -30 -50 -29 -103
-63 -120 -75 -29 -22 -75 -34 -145 -41 -19 -1 -49 -5 -67 -9 -28 -5 -33 -2
-53 30 -12 19 -26 35 -31 35 -5 0 -32 -9 -61 -20 -70 -26 -74 -26 -124 15 -23
19 -45 35 -49 35 -3 0 -34 -22 -68 -50 -58 -47 -65 -50 -119 -50 -31 0 -58 -3
-60 -8 -1 -4 -37 -35 -78 -68 -121 -99 -227 -219 -217 -248 5 -14 86 -13 542
5 372 15 436 15 1200 11 270 -2 490 -1 489 0 -26 84 -71 165 -113 202 -12 11
-19 26 -16 33 2 8 0 11 -5 8 -6 -3 -10 -1 -10 4 0 15 36 14 69 -3 42 -22 116
-113 153 -188 l32 -67 259 -3 c143 -2 262 -1 266 2 4 3 17 28 28 55 12 28 39
91 61 141 33 73 41 105 43 161 4 82 -8 103 -55 103 -21 0 -44 11 -71 35 -22
19 -49 37 -60 39 -64 14 -83 13 -134 -10z m-1423 -154 c-16 -26 -4 -36 27 -22
14 7 36 12 48 12 20 -1 21 -2 5 -14 -32 -24 -20 -33 33 -28 37 3 50 2 45 -7
-4 -6 -18 -11 -31 -11 -13 0 -27 -4 -30 -10 -4 -6 5 -10 19 -10 16 0 26 -6 26
-15 0 -8 -7 -15 -15 -15 -25 0 -17 -15 18 -29 l32 -14 -45 -6 -44 -6 28 -18
c37 -25 25 -33 -24 -17 -42 14 -62 8 -42 -12 16 -16 15 -48 -1 -48 -8 0 -22 9
-32 20 -25 27 -37 25 -57 -11 -19 -32 -38 -31 -38 1 0 26 -18 35 -38 17 -9 -8
-26 -17 -38 -21 -18 -6 -20 -3 -16 24 5 34 1 36 -32 15 -27 -18 -82 -35 -89
-28 -3 2 9 18 26 33 l32 29 -70 -5 c-67 -4 -69 -4 -35 9 l35 14 -42 7 c-24 4
-43 12 -43 17 0 5 19 9 43 9 23 0 49 5 57 10 12 7 8 10 -15 10 -16 0 -37 5
-45 11 -11 8 -3 9 32 4 50 -6 70 6 41 25 -14 9 -8 10 30 5 39 -5 47 -3 47 9 0
11 10 16 30 16 18 0 33 6 37 16 4 11 13 13 33 9 20 -4 38 1 65 19 45 31 49 32
33 6z"/>
<path d="M3774 3582 l-82 -3 -6 -49 -7 -50 -118 0 -118 0 -7 -31 c-14 -72 -18
-69 109 -69 108 0 115 -1 115 -20 0 -28 5 -26 46 20 43 47 58 49 96 13 28 -27
29 -27 155 -24 70 1 131 5 135 7 5 3 8 25 8 49 0 53 -2 54 -135 58 l-90 2 -3
45 c-2 25 -6 47 -10 50 -4 3 -44 4 -88 2z"/>
<path d="M3460 3256 c0 -9 5 -16 10 -16 6 0 10 -7 10 -15 0 -8 5 -15 10 -15
15 0 12 9 -10 37 -15 19 -20 21 -20 9z"/>
<path d="M1925 3170 c-3 -5 -1 -10 4 -10 6 0 11 5 11 10 0 6 -2 10 -4 10 -3 0
-8 -4 -11 -10z"/>
<path d="M2910 1980 c0 -113 1 -120 20 -120 19 0 20 7 20 104 0 113 -4 136
-26 136 -11 0 -14 -24 -14 -120z"/>
<path d="M3402 2058 c3 -46 21 -60 37 -29 14 25 -2 71 -24 71 -13 0 -15 -9
-13 -42z"/>
<path d="M4367 2013 c-12 -69 -9 -93 11 -93 28 0 30 6 19 63 -13 68 -23 77
-30 30z"/>
<path d="M5085 1588 c-3 -8 -4 -66 -3 -128 3 -96 6 -115 19 -118 13 -2 17 8
21 50 7 79 -5 201 -19 206 -7 2 -15 -3 -18 -10z"/>
<path d="M2220 1546 c0 -49 14 -66 35 -45 19 19 5 83 -18 87 -14 3 -17 -4 -17
-42z"/>
<path d="M2760 1551 c0 -43 8 -54 29 -41 18 11 6 80 -14 80 -11 0 -15 -12 -15
-39z"/>
<path d="M3386 1520 c-4 -14 -7 -43 -9 -65 -2 -35 1 -40 22 -43 23 -4 23 -2
16 43 -3 26 -10 57 -15 69 -8 20 -8 20 -14 -4z"/>
<path d="M4112 1548 c3 -43 13 -54 36 -39 22 13 5 81 -20 81 -16 0 -19 -6 -16
-42z"/>
<path d="M4116 1453 c-3 -4 -6 -28 -6 -55 0 -41 3 -48 19 -48 27 0 34 15 26
60 -6 36 -25 57 -39 43z"/>
</g>
</svg>
